<?xml version="1.0" encoding="UTF-8" standalone="no"?>
<!DOCTYPE svg PUBLIC "-//W3C//DTD SVG 1.1//EN" "http://www.w3.org/Graphics/SVG/1.1/DTD/svg11.dtd">
<svg xmlns="http://www.w3.org/2000/svg" version="1.1" viewBox="0.00 0.00 73.00 36.00">
<g stroke-width="2.00" fill="none" stroke-linecap="butt">
<path stroke="#80882e" vector-effect="non-scaling-stroke" d="
  M 6.75 17.99
  Q 7.59 20.23 8.06 22.64
  C 8.32 23.97 9.47 24.67 10.76 24.08
  Q 11.28 23.85 11.42 23.29
  Q 12.06 20.77 12.76 18.13
  Q 12.79 18.00 12.93 18.02
  Q 12.98 18.03 13.03 18.05
  Q 13.17 18.14 13.16 18.31
  Q 13.02 20.79 13.25 22.92
  Q 13.41 24.31 14.80 24.21
  L 15.20 24.18
  A 1.66 1.66 0.0 0 0 16.74 22.56
  Q 16.84 18.27 16.79 12.89
  C 16.77 11.19 15.38 10.64 13.83 10.65
  Q 11.74 10.68 11.34 12.59
  Q 10.83 15.00 10.08 17.50
  Q 9.80 18.43 9.56 17.49
  Q 8.98 15.25 8.45 12.83
  C 7.96 10.56 5.30 10.03 3.65 11.27
  Q 2.99 11.77 2.99 12.67
  Q 2.99 18.25 3.03 22.88
  Q 3.04 24.06 4.21 24.19
  L 4.83 24.25
  Q 6.59 24.44 6.60 22.67
  L 6.62 18.01
  Q 6.62 17.65 6.75 17.99"
/>
<path stroke="#80882e" vector-effect="non-scaling-stroke" d="
  M 35.48 17.22
  Q 38.10 15.61 36.51 12.66
  C 35.08 10.01 29.80 10.75 27.34 10.75
  Q 24.89 10.76 24.86 13.19
  Q 24.79 17.81 24.86 22.41
  Q 24.89 24.37 26.84 24.23
  L 27.24 24.20
  Q 28.58 24.10 28.65 22.76
  L 28.80 19.85
  Q 28.83 19.28 29.40 19.31
  L 31.69 19.46
  A 1.28 1.28 0.0 0 1 32.88 20.55
  Q 33.01 21.47 33.08 22.40
  C 33.20 24.07 34.88 24.57 36.26 24.03
  Q 36.88 23.79 36.98 23.13
  Q 37.30 20.96 36.55 18.81
  C 36.42 18.45 35.95 17.99 35.58 17.90
  Q 34.75 17.67 35.48 17.22"
/>
<path stroke="#80882e" vector-effect="non-scaling-stroke" d="
  M 51.53 14.13
  C 53.26 12.40 55.53 15.84 57.77 14.95
  A 1.54 1.54 0.0 0 0 58.51 12.71
  C 56.96 10.20 51.39 10.58 49.31 11.30
  C 47.09 12.06 45.71 15.13 47.46 17.00
  C 49.09 18.76 52.13 18.97 54.33 19.72
  A 0.60 0.60 0.0 0 1 54.41 20.82
  Q 52.29 21.94 50.34 19.94
  A 2.03 2.01 -28.8 0 0 48.42 19.39
  Q 47.02 19.72 46.80 20.61
  Q 46.49 21.87 47.53 22.66
  C 50.38 24.81 58.42 25.49 59.37 20.38
  C 60.10 16.42 54.30 15.71 51.80 15.10
  A 0.58 0.58 0.0 0 1 51.53 14.13"
/>
<path stroke="#80882e" vector-effect="non-scaling-stroke" d="
  M 33.1006 14.4438
  A 0.85 0.85 0.0 0 0 32.2521 13.5924
  L 29.5521 13.5876
  A 0.85 0.85 0.0 0 0 28.7006 14.4362
  L 28.6994 15.1762
  A 0.85 0.85 0.0 0 0 29.5479 16.0276
  L 32.2479 16.0324
  A 0.85 0.85 0.0 0 0 33.0994 15.1838
  L 33.1006 14.4438"
/>
</g>
<path fill="#ffda00" d="
  M 0.00 0.00
  L 0.50 0.00
  Q 0.49 0.06 0.49 0.12
  Q 0.47 0.25 0.58 0.31
  Q 11.01 6.66 21.67 13.08
  A 0.23 0.23 0.0 0 0 22.01 12.88
  L 22.05 0.00
  L 22.50 0.00
  Q 22.50 0.06 22.49 0.11
  Q 22.48 0.22 22.57 0.28
  Q 33.14 6.70 43.61 13.03
  A 0.30 0.30 0.0 0 0 44.07 12.78
  L 44.09 0.00
  L 44.50 0.00
  Q 44.50 0.06 44.49 0.11
  Q 44.49 0.22 44.58 0.28
  Q 58.51 8.71 72.57 17.22
  A 0.33 0.33 0.0 0 1 72.57 17.78
  L 44.51 34.76
  A 0.29 0.29 0.0 0 1 44.07 34.51
  L 44.06 22.31
  A 0.35 0.34 74.7 0 0 43.54 22.01
  L 22.68 34.64
  Q 22.00 35.05 22.00 34.26
  L 22.00 22.48
  Q 22.00 21.70 21.33 22.11
  L 0.00 34.97
  L 0.00 0.00
  Z
  M 6.75 17.99
  Q 7.59 20.23 8.06 22.64
  C 8.32 23.97 9.47 24.67 10.76 24.08
  Q 11.28 23.85 11.42 23.29
  Q 12.06 20.77 12.76 18.13
  Q 12.79 18.00 12.93 18.02
  Q 12.98 18.03 13.03 18.05
  Q 13.17 18.14 13.16 18.31
  Q 13.02 20.79 13.25 22.92
  Q 13.41 24.31 14.80 24.21
  L 15.20 24.18
  A 1.66 1.66 0.0 0 0 16.74 22.56
  Q 16.84 18.27 16.79 12.89
  C 16.77 11.19 15.38 10.64 13.83 10.65
  Q 11.74 10.68 11.34 12.59
  Q 10.83 15.00 10.08 17.50
  Q 9.80 18.43 9.56 17.49
  Q 8.98 15.25 8.45 12.83
  C 7.96 10.56 5.30 10.03 3.65 11.27
  Q 2.99 11.77 2.99 12.67
  Q 2.99 18.25 3.03 22.88
  Q 3.04 24.06 4.21 24.19
  L 4.83 24.25
  Q 6.59 24.44 6.60 22.67
  L 6.62 18.01
  Q 6.62 17.65 6.75 17.99
  Z
  M 35.48 17.22
  Q 38.10 15.61 36.51 12.66
  C 35.08 10.01 29.80 10.75 27.34 10.75
  Q 24.89 10.76 24.86 13.19
  Q 24.79 17.81 24.86 22.41
  Q 24.89 24.37 26.84 24.23
  L 27.24 24.20
  Q 28.58 24.10 28.65 22.76
  L 28.80 19.85
  Q 28.83 19.28 29.40 19.31
  L 31.69 19.46
  A 1.28 1.28 0.0 0 1 32.88 20.55
  Q 33.01 21.47 33.08 22.40
  C 33.20 24.07 34.88 24.57 36.26 24.03
  Q 36.88 23.79 36.98 23.13
  Q 37.30 20.96 36.55 18.81
  C 36.42 18.45 35.95 17.99 35.58 17.90
  Q 34.75 17.67 35.48 17.22
  Z
  M 51.53 14.13
  C 53.26 12.40 55.53 15.84 57.77 14.95
  A 1.54 1.54 0.0 0 0 58.51 12.71
  C 56.96 10.20 51.39 10.58 49.31 11.30
  C 47.09 12.06 45.71 15.13 47.46 17.00
  C 49.09 18.76 52.13 18.97 54.33 19.72
  A 0.60 0.60 0.0 0 1 54.41 20.82
  Q 52.29 21.94 50.34 19.94
  A 2.03 2.01 -28.8 0 0 48.42 19.39
  Q 47.02 19.72 46.80 20.61
  Q 46.49 21.87 47.53 22.66
  C 50.38 24.81 58.42 25.49 59.37 20.38
  C 60.10 16.42 54.30 15.71 51.80 15.10
  A 0.58 0.58 0.0 0 1 51.53 14.13
  Z"
/>
<path fill="#00355b" d="
  M 6.62 18.01
  L 6.60 22.67
  Q 6.59 24.44 4.83 24.25
  L 4.21 24.19
  Q 3.04 24.06 3.03 22.88
  Q 2.99 18.25 2.99 12.67
  Q 2.99 11.77 3.65 11.27
  C 5.30 10.03 7.96 10.56 8.45 12.83
  Q 8.98 15.25 9.56 17.49
  Q 9.80 18.43 10.08 17.50
  Q 10.83 15.00 11.34 12.59
  Q 11.74 10.68 13.83 10.65
  C 15.38 10.64 16.77 11.19 16.79 12.89
  Q 16.84 18.27 16.74 22.56
  A 1.66 1.66 0.0 0 1 15.20 24.18
  L 14.80 24.21
  Q 13.41 24.31 13.25 22.92
  Q 13.02 20.79 13.16 18.31
  Q 13.17 18.14 13.03 18.05
  Q 12.98 18.03 12.93 18.02
  Q 12.79 18.00 12.76 18.13
  Q 12.06 20.77 11.42 23.29
  Q 11.28 23.85 10.76 24.08
  C 9.47 24.67 8.32 23.97 8.06 22.64
  Q 7.59 20.23 6.75 17.99
  Q 6.62 17.65 6.62 18.01
  Z"
/>
<path fill="#00355b" d="
  M 35.58 17.90
  C 35.95 17.99 36.42 18.45 36.55 18.81
  Q 37.30 20.96 36.98 23.13
  Q 36.88 23.79 36.26 24.03
  C 34.88 24.57 33.20 24.07 33.08 22.40
  Q 33.01 21.47 32.88 20.55
  A 1.28 1.28 0.0 0 0 31.69 19.46
  L 29.40 19.31
  Q 28.83 19.28 28.80 19.85
  L 28.65 22.76
  Q 28.58 24.10 27.24 24.20
  L 26.84 24.23
  Q 24.89 24.37 24.86 22.41
  Q 24.79 17.81 24.86 13.19
  Q 24.89 10.76 27.34 10.75
  C 29.80 10.75 35.08 10.01 36.51 12.66
  Q 38.10 15.61 35.48 17.22
  Q 34.75 17.67 35.58 17.90
  Z
  M 33.1006 14.4438
  A 0.85 0.85 0.0 0 0 32.2521 13.5924
  L 29.5521 13.5876
  A 0.85 0.85 0.0 0 0 28.7006 14.4362
  L 28.6994 15.1762
  A 0.85 0.85 0.0 0 0 29.5479 16.0276
  L 32.2479 16.0324
  A 0.85 0.85 0.0 0 0 33.0994 15.1838
  L 33.1006 14.4438
  Z"
/>
<path fill="#00355b" d="
  M 51.80 15.10
  C 54.30 15.71 60.10 16.42 59.37 20.38
  C 58.42 25.49 50.38 24.81 47.53 22.66
  Q 46.49 21.87 46.80 20.61
  Q 47.02 19.72 48.42 19.39
  A 2.03 2.01 -28.8 0 1 50.34 19.94
  Q 52.29 21.94 54.41 20.82
  A 0.60 0.60 0.0 0 0 54.33 19.72
  C 52.13 18.97 49.09 18.76 47.46 17.00
  C 45.71 15.13 47.09 12.06 49.31 11.30
  C 51.39 10.58 56.96 10.20 58.51 12.71
  A 1.54 1.54 0.0 0 1 57.77 14.95
  C 55.53 15.84 53.26 12.40 51.53 14.13
  A 0.58 0.58 0.0 0 0 51.80 15.10
  Z"
/>
<rect fill="#ffda00" x="-2.20" y="-1.22" transform="translate(30.90,14.81) rotate(0.1)" width="4.40" height="2.44" rx="0.85"/>
</svg>
