<?xml version="1.0" encoding="UTF-8" standalone="no"?>
<!DOCTYPE svg PUBLIC "-//W3C//DTD SVG 1.1//EN" "http://www.w3.org/Graphics/SVG/1.1/DTD/svg11.dtd">
<svg xmlns="http://www.w3.org/2000/svg" version="1.1" viewBox="0.00 0.00 118.00 58.00">
<g stroke-width="2.00" fill="none" stroke-linecap="butt">
<path stroke="#80892e" vector-effect="non-scaling-stroke" d="
  M 16.78 28.32
  Q 16.46 29.99 15.99 28.36
  Q 14.98 24.85 14.09 20.61
  C 13.52 17.82 12.37 16.57 9.17 16.71
  C 7.16 16.79 5.26 17.57 5.26 19.93
  Q 5.24 28.65 5.26 36.59
  Q 5.26 38.79 7.42 39.20
  Q 7.76 39.26 8.11 39.25
  Q 10.84 39.11 10.92 36.38
  L 11.19 27.85
  Q 11.20 27.71 11.22 27.71
  L 11.48 27.69
  Q 11.58 27.69 11.59 27.78
  Q 12.48 33.22 13.81 37.66
  Q 14.27 39.21 15.88 39.31
  Q 18.45 39.48 18.96 37.23
  Q 19.91 32.99 21.14 28.78
  Q 21.19 28.58 21.28 28.40
  Q 21.48 28.00 21.48 28.45
  L 21.53 36.74
  A 2.51 2.51 0.0 0 0 23.99 39.24
  L 24.60 39.25
  Q 27.43 39.30 27.46 36.47
  Q 27.55 28.18 27.47 20.46
  C 27.43 16.74 24.14 16.41 21.22 16.89
  C 19.50 17.17 19.14 18.58 18.75 20.00
  Q 17.53 24.34 16.78 28.32"
/>
<path stroke="#80892e" vector-effect="non-scaling-stroke" d="
  M 57.40 28.02
  C 62.54 25.13 60.55 17.73 54.75 17.01
  Q 49.99 16.43 43.98 16.90
  Q 40.54 17.17 40.50 20.49
  Q 40.46 23.90 40.52 36.18
  Q 40.54 39.28 43.64 39.25
  L 44.26 39.25
  Q 46.74 39.22 46.74 36.74
  L 46.76 31.66
  Q 46.76 31.07 47.35 31.02
  Q 49.83 30.80 52.30 31.38
  Q 52.97 31.54 53.18 32.19
  Q 53.77 33.96 53.83 35.93
  Q 53.95 39.12 57.14 39.28
  Q 57.58 39.31 58.01 39.23
  Q 60.50 38.77 60.44 36.23
  Q 60.38 33.74 59.72 30.67
  C 59.47 29.51 58.62 28.83 57.49 28.62
  Q 56.64 28.45 57.40 28.02"
/>
<path stroke="#80892e" vector-effect="non-scaling-stroke" d="
  M 88.04 31.59
  A 1.08 1.08 0.0 0 1 88.34 33.51
  C 86.02 35.12 83.58 33.90 81.77 32.18
  C 80.18 30.67 77.47 30.86 76.24 32.65
  A 1.81 1.77 -32.0 0 0 75.94 33.87
  Q 76.28 36.95 79.73 38.16
  C 85.07 40.04 96.57 40.20 96.48 31.66
  C 96.41 26.09 88.82 25.26 84.89 24.35
  Q 83.88 24.12 83.44 23.23
  A 0.85 0.84 67.5 0 1 83.92 22.06
  C 85.82 21.39 87.82 21.73 89.29 23.13
  C 90.77 24.53 93.47 24.86 94.79 23.07
  C 96.36 20.95 94.50 18.59 92.35 17.91
  C 86.63 16.10 75.89 15.56 75.86 24.14
  C 75.85 27.01 78.32 28.94 80.91 29.61
  Q 84.52 30.53 88.04 31.59"
/>
<path stroke="#80892e" vector-effect="non-scaling-stroke" d="
  M 46.74 21.81
  L 46.74 25.41
  A 0.32 0.32 0.0 0 0 47.06 25.73
  L 51.51 25.74
  A 2.49 1.70 0.1 0 0 54.00 24.05
  L 54.00 23.21
  A 2.49 1.70 0.1 0 0 51.51 21.50
  L 47.06 21.49
  A 0.32 0.32 0.0 0 0 46.74 21.81"
/>
</g>
<path fill="#00355b" d="
  M 0.77 0.00
  Q 1.01 0.01 1.25 0.00
  L 35.48 21.15
  Q 35.92 21.42 35.92 20.91
  L 35.99 0.00
  L 36.72 0.00
  L 71.02 21.16
  Q 71.45 21.42 71.46 20.91
  L 71.50 0.00
  L 71.95 0.00
  L 118.00 28.53
  L 118.00 28.94
  L 71.97 57.45
  A 0.31 0.31 0.0 0 1 71.50 57.19
  L 71.51 36.48
  A 0.37 0.37 0.0 0 0 70.94 36.16
  L 36.48 57.48
  A 0.31 0.31 0.0 0 1 36.00 57.22
  L 36.00 36.49
  A 0.34 0.33 -16.1 0 0 35.48 36.21
  L 1.17 57.45
  A 0.28 0.27 -16.0 0 1 0.75 57.22
  L 0.77 0.00
  Z
  M 16.78 28.32
  Q 16.46 29.99 15.99 28.36
  Q 14.98 24.85 14.09 20.61
  C 13.52 17.82 12.37 16.57 9.17 16.71
  C 7.16 16.79 5.26 17.57 5.26 19.93
  Q 5.24 28.65 5.26 36.59
  Q 5.26 38.79 7.42 39.20
  Q 7.76 39.26 8.11 39.25
  Q 10.84 39.11 10.92 36.38
  L 11.19 27.85
  Q 11.20 27.71 11.22 27.71
  L 11.48 27.69
  Q 11.58 27.69 11.59 27.78
  Q 12.48 33.22 13.81 37.66
  Q 14.27 39.21 15.88 39.31
  Q 18.45 39.48 18.96 37.23
  Q 19.91 32.99 21.14 28.78
  Q 21.19 28.58 21.28 28.40
  Q 21.48 28.00 21.48 28.45
  L 21.53 36.74
  A 2.51 2.51 0.0 0 0 23.99 39.24
  L 24.60 39.25
  Q 27.43 39.30 27.46 36.47
  Q 27.55 28.18 27.47 20.46
  C 27.43 16.74 24.14 16.41 21.22 16.89
  C 19.50 17.17 19.14 18.58 18.75 20.00
  Q 17.53 24.34 16.78 28.32
  Z
  M 57.40 28.02
  C 62.54 25.13 60.55 17.73 54.75 17.01
  Q 49.99 16.43 43.98 16.90
  Q 40.54 17.17 40.50 20.49
  Q 40.46 23.90 40.52 36.18
  Q 40.54 39.28 43.64 39.25
  L 44.26 39.25
  Q 46.74 39.22 46.74 36.74
  L 46.76 31.66
  Q 46.76 31.07 47.35 31.02
  Q 49.83 30.80 52.30 31.38
  Q 52.97 31.54 53.18 32.19
  Q 53.77 33.96 53.83 35.93
  Q 53.95 39.12 57.14 39.28
  Q 57.58 39.31 58.01 39.23
  Q 60.50 38.77 60.44 36.23
  Q 60.38 33.74 59.72 30.67
  C 59.47 29.51 58.62 28.83 57.49 28.62
  Q 56.64 28.45 57.40 28.02
  Z
  M 88.04 31.59
  A 1.08 1.08 0.0 0 1 88.34 33.51
  C 86.02 35.12 83.58 33.90 81.77 32.18
  C 80.18 30.67 77.47 30.86 76.24 32.65
  A 1.81 1.77 -32.0 0 0 75.94 33.87
  Q 76.28 36.95 79.73 38.16
  C 85.07 40.04 96.57 40.20 96.48 31.66
  C 96.41 26.09 88.82 25.26 84.89 24.35
  Q 83.88 24.12 83.44 23.23
  A 0.85 0.84 67.5 0 1 83.92 22.06
  C 85.82 21.39 87.82 21.73 89.29 23.13
  C 90.77 24.53 93.47 24.86 94.79 23.07
  C 96.36 20.95 94.50 18.59 92.35 17.91
  C 86.63 16.10 75.89 15.56 75.86 24.14
  C 75.85 27.01 78.32 28.94 80.91 29.61
  Q 84.52 30.53 88.04 31.59
  Z"
/>
<path fill="#ffdd00" d="
  M 16.78 28.32
  Q 17.53 24.34 18.75 20.00
  C 19.14 18.58 19.50 17.17 21.22 16.89
  C 24.14 16.41 27.43 16.74 27.47 20.46
  Q 27.55 28.18 27.46 36.47
  Q 27.43 39.30 24.60 39.25
  L 23.99 39.24
  A 2.51 2.51 0.0 0 1 21.53 36.74
  L 21.48 28.45
  Q 21.48 28.00 21.28 28.40
  Q 21.19 28.58 21.14 28.78
  Q 19.91 32.99 18.96 37.23
  Q 18.45 39.48 15.88 39.31
  Q 14.27 39.21 13.81 37.66
  Q 12.48 33.22 11.59 27.78
  Q 11.58 27.69 11.48 27.69
  L 11.22 27.71
  Q 11.20 27.71 11.19 27.85
  L 10.92 36.38
  Q 10.84 39.11 8.11 39.25
  Q 7.76 39.26 7.42 39.20
  Q 5.26 38.79 5.26 36.59
  Q 5.24 28.65 5.26 19.93
  C 5.26 17.57 7.16 16.79 9.17 16.71
  C 12.37 16.57 13.52 17.82 14.09 20.61
  Q 14.98 24.85 15.99 28.36
  Q 16.46 29.99 16.78 28.32
  Z"
/>
<path fill="#ffdd00" d="
  M 57.49 28.62
  C 58.62 28.83 59.47 29.51 59.72 30.67
  Q 60.38 33.74 60.44 36.23
  Q 60.50 38.77 58.01 39.23
  Q 57.58 39.31 57.14 39.28
  Q 53.95 39.12 53.83 35.93
  Q 53.77 33.96 53.18 32.19
  Q 52.97 31.54 52.30 31.38
  Q 49.83 30.80 47.35 31.02
  Q 46.76 31.07 46.76 31.66
  L 46.74 36.74
  Q 46.74 39.22 44.26 39.25
  L 43.64 39.25
  Q 40.54 39.28 40.52 36.18
  Q 40.46 23.90 40.50 20.49
  Q 40.54 17.17 43.98 16.90
  Q 49.99 16.43 54.75 17.01
  C 60.55 17.73 62.54 25.13 57.40 28.02
  Q 56.64 28.45 57.49 28.62
  Z
  M 46.74 21.81
  L 46.74 25.41
  A 0.32 0.32 0.0 0 0 47.06 25.73
  L 51.51 25.74
  A 2.49 1.70 0.1 0 0 54.00 24.05
  L 54.00 23.21
  A 2.49 1.70 0.1 0 0 51.51 21.50
  L 47.06 21.49
  A 0.32 0.32 0.0 0 0 46.74 21.81
  Z"
/>
<path fill="#ffdd00" d="
  M 88.04 31.59
  Q 84.52 30.53 80.91 29.61
  C 78.32 28.94 75.85 27.01 75.86 24.14
  C 75.89 15.56 86.63 16.10 92.35 17.91
  C 94.50 18.59 96.36 20.95 94.79 23.07
  C 93.47 24.86 90.77 24.53 89.29 23.13
  C 87.82 21.73 85.82 21.39 83.92 22.06
  A 0.85 0.84 67.5 0 0 83.44 23.23
  Q 83.88 24.12 84.89 24.35
  C 88.82 25.26 96.41 26.09 96.48 31.66
  C 96.57 40.20 85.07 40.04 79.73 38.16
  Q 76.28 36.95 75.94 33.87
  A 1.81 1.77 -32.0 0 1 76.24 32.65
  C 77.47 30.86 80.18 30.67 81.77 32.18
  C 83.58 33.90 86.02 35.12 88.34 33.51
  A 1.08 1.08 0.0 0 0 88.04 31.59
  Z"
/>
<path fill="#00355b" d="
  M 46.74 21.81
  A 0.32 0.32 0.0 0 1 47.06 21.49
  L 51.51 21.50
  A 2.49 1.70 0.1 0 1 54.00 23.21
  L 54.00 24.05
  A 2.49 1.70 0.1 0 1 51.51 25.74
  L 47.06 25.73
  A 0.32 0.32 0.0 0 1 46.74 25.41
  L 46.74 21.81
  Z"
/>
</svg>
